<svg width="43" height="43" viewBox="0 0 43 43" fill="none" xmlns="http://www.w3.org/2000/svg">
<path d="M32.25 3.58331C33.2003 3.58331 34.1118 3.96084 34.7838 4.63285C35.4558 5.30485 35.8333 6.21629 35.8333 7.16665V35.8333C35.8333 36.7837 35.4558 37.6951 34.7838 38.3671C34.1118 39.0391 33.2003 39.4166 32.25 39.4166H10.75C9.79963 39.4166 8.8882 39.0391 8.21619 38.3671C7.54419 37.6951 7.16666 36.7837 7.16666 35.8333V7.16665C7.16666 6.21629 7.54419 5.30485 8.21619 4.63285C8.8882 3.96084 9.79963 3.58331 10.75 3.58331H32.25ZM32.25 7.16665H23.2917V21.5L18.8125 17.4687L14.3333 21.5V7.16665H10.75V35.8333H32.25V7.16665Z" fill="white"/>
</svg>
