<svg width="32" height="33" viewBox="0 0 32 33" fill="none" xmlns="http://www.w3.org/2000/svg">
<g id="account">
<path id="Vector" d="M16.0002 5.83435C17.4147 5.83435 18.7712 6.39667 19.7714 7.39762C20.7716 8.39856 21.3335 9.75613 21.3335 11.1717C21.3335 12.5872 20.7716 13.9448 19.7714 14.9457C18.7712 15.9467 17.4147 16.509 16.0002 16.509C14.5857 16.509 13.2291 15.9467 12.2289 14.9457C11.2287 13.9448 10.6668 12.5872 10.6668 11.1717C10.6668 9.75613 11.2287 8.39856 12.2289 7.39762C13.2291 6.39667 14.5857 5.83435 16.0002 5.83435ZM16.0002 19.1777C21.8935 19.1777 26.6668 21.5661 26.6668 24.515V27.1837H5.3335V24.515C5.3335 21.5661 10.1068 19.1777 16.0002 19.1777Z" fill="white"/>
</g>
</svg>
