<svg width="32" height="33" viewBox="0 0 32 33" fill="none" xmlns="http://www.w3.org/2000/svg">
<g id="cog-outline">
<path id="Vector" d="M15 10.2444C16.3085 10.2444 17.5633 10.7505 18.4885 11.6513C19.4138 12.5522 19.9335 13.774 19.9335 15.048C19.9335 16.322 19.4138 17.5438 18.4885 18.4446C17.5633 19.3455 16.3085 19.8516 15 19.8516C13.6915 19.8516 12.4367 19.3455 11.5115 18.4446C10.5862 17.5438 10.0665 16.322 10.0665 15.048C10.0665 13.774 10.5862 12.5522 11.5115 11.6513C12.4367 10.7505 13.6915 10.2444 15 10.2444ZM15 12.6462C14.3458 12.6462 13.7183 12.8992 13.2557 13.3497C12.7931 13.8001 12.5332 14.411 12.5332 15.048C12.5332 15.685 12.7931 16.2959 13.2557 16.7463C13.7183 17.1967 14.3458 17.4498 15 17.4498C15.6542 17.4498 16.2817 17.1967 16.7443 16.7463C17.2069 16.2959 17.4668 15.685 17.4668 15.048C17.4668 14.411 17.2069 13.8001 16.7443 13.3497C16.2817 12.8992 15.6542 12.6462 15 12.6462ZM12.5332 27.057C12.2249 27.057 11.9659 26.8408 11.9165 26.5526L11.4602 23.3702C10.6832 23.07 10.0171 22.6617 9.37577 22.1813L6.30464 23.3942C6.0333 23.4903 5.70029 23.3942 5.55228 23.13L3.08551 18.9749C2.92517 18.7107 2.99918 18.3865 3.23352 18.2063L5.83596 16.2129L5.74962 15.048L5.83596 13.8471L3.23352 11.8896C2.99918 11.7095 2.92517 11.3852 3.08551 11.121L5.55228 6.96593C5.70029 6.70173 6.0333 6.59365 6.30464 6.70173L9.37577 7.90263C10.0171 7.43428 10.6832 7.02597 11.4602 6.72575L11.9165 3.54336C11.9659 3.25515 12.2249 3.03899 12.5332 3.03899H17.4668C17.7751 3.03899 18.0341 3.25515 18.0835 3.54336L18.5398 6.72575C19.3168 7.02597 19.9829 7.43428 20.6242 7.90263L23.6954 6.70173C23.9667 6.59365 24.2997 6.70173 24.4477 6.96593L26.9145 11.121C27.0748 11.3852 27.0008 11.7095 26.7665 11.8896L24.164 13.8471L24.2504 15.048L24.164 16.2489L26.7665 18.2063C27.0008 18.3865 27.0748 18.7107 26.9145 18.9749L24.4477 23.13C24.2997 23.3942 23.9667 23.5023 23.6954 23.3942L20.6242 22.1933C19.9829 22.6617 19.3168 23.07 18.5398 23.3702L18.0835 26.5526C18.0341 26.8408 17.7751 27.057 17.4668 27.057H12.5332ZM14.075 5.44079L13.6186 8.57513C12.1385 8.87536 10.8312 9.64393 9.88146 10.7127L6.909 9.4638L5.98396 11.025L8.5864 12.8864C8.09305 14.2914 8.09305 15.8166 8.5864 17.2096L5.97163 19.083L6.89667 20.6442L9.89379 19.3952C10.8435 20.452 12.1385 21.2206 13.6063 21.5088L14.0626 24.6552H15.9374L16.3937 21.5208C17.8615 21.2206 19.1565 20.452 20.1062 19.3952L23.1033 20.6442L24.0284 19.083L21.4136 17.2216C21.9069 15.8166 21.9069 14.2914 21.4136 12.8864L24.016 11.025L23.091 9.4638L20.1185 10.7127C19.1688 9.64393 17.8615 8.87536 16.3814 8.58714L15.925 5.44079H14.075Z" fill="white"/>
</g>
</svg>
