<svg width="51" height="51" viewBox="0 0 51 51" fill="none" xmlns="http://www.w3.org/2000/svg">
<path d="M27.9583 0.127083V5.26125C37.9979 6.50667 45.75 15.0467 45.75 25.4167C45.75 33.5754 40.87 40.6667 33.7533 43.92L27.9583 38.125V50.8333H40.6667L37.5658 47.7325C45.5212 43.3862 50.8333 34.9733 50.8333 25.4167C50.8333 12.2508 40.7937 1.39792 27.9583 0.127083ZM22.875 0C17.9187 0.508333 13.2167 2.44 9.35333 5.61708L12.9625 9.22625C15.8346 6.98958 19.2658 5.59167 22.875 5.08333V0ZM5.59167 9.35333C2.44 13.2167 0.508333 17.9187 0 22.875H5.08333C5.56625 19.2658 6.98958 15.8346 9.22625 12.9625L5.59167 9.35333ZM10.1667 15.25V20.3333H17.7917V22.875H15.25C12.4542 22.875 10.1667 25.1625 10.1667 27.9583V35.5833H22.875V30.5H15.25V27.9583H17.7917C20.6129 27.9583 22.875 25.6962 22.875 22.875V20.3333C22.875 17.5375 20.6129 15.25 17.7917 15.25H10.1667ZM25.4167 15.25V27.9583H33.0417V35.5833H38.125V27.9583H40.6667V22.875H38.125V15.25H33.0417V22.875H30.5V15.25H25.4167ZM0 27.9583C0.508333 32.9146 2.46542 37.6167 5.6425 41.48L9.25167 37.8708C7.015 34.9987 5.59167 31.5675 5.08333 27.9583H0ZM12.9879 41.6071L9.35333 45.2163C13.2167 48.3679 17.9187 50.325 22.875 50.8333V45.75C19.2658 45.2671 15.86 43.8438 12.9879 41.6071Z" fill="white"/>
</svg>
